<?xml version="1.0" encoding="UTF-8"?>
<svg width="32" height="32" version="1.1" viewBox="0 0 32 32" xmlns="http://www.w3.org/2000/svg">
  <path d="M16 2C8.268 2 2 8.268 2 16s6.268 14 14 14 14-6.268 14-14S23.732 2 16 2zm0 2c6.627 0 12 5.373 12 12s-5.373 12-12 12S4 22.627 4 16 9.373 4 16 4zm0 2c-5.523 0-10 4.477-10 10s4.477 10 10 10 10-4.477 10-10S21.523 6 16 6zm0 2c4.418 0 8 3.582 8 8s-3.582 8-8 8-8-3.582-8-8 3.582-8 8-8zm0 1c-3.866 0-7 3.134-7 7s3.134 7 7 7 7-3.134 7-7-3.134-7-7-7zm0 1c3.314 0 6 2.686 6 6s-2.686 6-6 6-6-2.686-6-6 2.686-6 6-6zm-0.5 2v4.75l3 2.25-0.75 1L14 16v-4h1.5z" fill="#000"/>
  <path d="M24.5 6.5l3 3.5M7.5 6.5l-3 3.5M16 24v3.5M16 1v2" stroke="#000" stroke-width="1.5" stroke-linecap="round" fill="none"/>
  <g transform="translate(20.5,6.5)">
    <circle cx="2" cy="2" r="3.5" fill="#d40000"/>
    <path d="m2 0.5v2M2 3.5v0.1" stroke="#fff" stroke-width="1.2" stroke-linecap="round"/>
  </g>
</svg>
