<?xml version="1.0" standalone="no"?>
<!DOCTYPE svg PUBLIC "-//W3C//DTD SVG 20010904//EN"
 "http://www.w3.org/TR/2001/REC-SVG-20010904/DTD/svg10.dtd">
<svg version="1.0" xmlns="http://www.w3.org/2000/svg"
 width="2478.000000pt" height="2433.000000pt" viewBox="0 0 2478.000000 2433.000000"
 preserveAspectRatio="xMidYMid meet">
<metadata>
Created by potrace 1.10, written by Peter Selinger 2001-2011
</metadata>
<g transform="translate(0.000000,2433.000000) scale(0.100000,-0.100000)"
fill="#000000" stroke="none">
<path d="M10970 23420 c-52 -3 -101 -9 -108 -14 -7 -4 -37 -11 -65 -16 -29 -4
-68 -13 -87 -20 -88 -32 -117 -43 -145 -55 -60 -26 -121 -57 -150 -76 -16 -10
-37 -22 -45 -26 -79 -36 -348 -290 -366 -345 -3 -10 -10 -18 -15 -18 -5 0 -9
-4 -9 -9 0 -6 -13 -29 -29 -53 -16 -24 -43 -72 -61 -108 -17 -36 -38 -78 -46
-93 -8 -16 -14 -35 -14 -42 0 -8 -6 -29 -14 -47 -20 -48 -42 -131 -60 -228
-18 -97 -22 -355 -6 -410 6 -19 15 -60 20 -90 12 -75 29 -140 46 -173 8 -16
14 -35 14 -44 0 -8 6 -27 14 -41 8 -15 24 -47 36 -72 24 -51 28 -58 90 -155
60 -93 78 -114 185 -219 75 -74 159 -137 270 -203 94 -56 273 -128 355 -143
25 -5 56 -13 70 -18 39 -15 325 -23 435 -13 97 10 128 16 245 48 64 17 122 41
230 93 160 77 350 238 466 395 72 99 74 102 120 195 20 41 41 84 47 95 6 11
14 33 18 50 4 16 12 44 18 60 30 90 71 333 71 423 0 46 -28 247 -41 302 -6 25
-15 61 -19 80 -17 74 -93 254 -143 335 -22 36 -130 180 -165 218 -98 112 -258
233 -392 297 -252 120 -462 159 -770 140z m220 -467 c53 -19 84 -44 116 -95
24 -37 24 -40 24 -320 0 -290 -21 -609 -44 -657 -6 -13 -29 -37 -50 -53 -50
-36 -140 -40 -192 -7 -59 36 -71 63 -78 179 -3 58 -10 139 -15 180 -6 41 -10
194 -10 340 -1 226 1 272 16 313 20 56 58 95 116 118 55 22 63 22 117 2z m14
-1410 c181 -65 195 -296 24 -384 -47 -24 -127 -25 -171 -1 -55 30 -87 54 -87
65 0 6 -7 19 -17 29 -12 13 -16 38 -17 93 0 66 2 78 29 116 32 45 120 98 165
99 14 0 47 -8 74 -17z"/>
<path d="M6265 22955 c-49 -7 -117 -14 -150 -14 -33 -1 -87 -8 -120 -16 -33
-8 -79 -15 -101 -15 -23 0 -61 -7 -84 -15 -23 -8 -60 -15 -82 -15 -21 0 -55
-7 -75 -15 -19 -8 -51 -15 -70 -15 -18 0 -50 -7 -70 -15 -19 -8 -44 -15 -55
-15 -11 0 -41 -7 -67 -14 -25 -8 -73 -23 -106 -32 -116 -33 -160 -46 -193 -60
-18 -8 -41 -14 -50 -14 -10 0 -27 -7 -38 -15 -10 -8 -27 -15 -36 -15 -10 0
-32 -6 -50 -14 -18 -8 -53 -22 -78 -31 -45 -17 -75 -30 -147 -62 -21 -9 -54
-23 -73 -31 -19 -8 -42 -19 -50 -24 -8 -4 -22 -11 -30 -14 -28 -10 -214 -105
-275 -140 -33 -18 -67 -37 -75 -41 -12 -5 -171 -100 -244 -146 -24 -14 -127
-84 -216 -145 -36 -25 -118 -88 -184 -141 -65 -53 -133 -107 -151 -121 -48
-38 -133 -119 -295 -281 -176 -177 -207 -211 -290 -314 -36 -44 -70 -84 -76
-90 -12 -10 -181 -238 -199 -267 -5 -9 -45 -68 -88 -132 -42 -63 -82 -127 -89
-141 -6 -14 -15 -25 -20 -25 -4 0 -8 -4 -8 -9 0 -5 -19 -42 -43 -83 -24 -40
-53 -93 -66 -118 -23 -47 -34 -68 -51 -97 -6 -10 -13 -25 -16 -33 -3 -8 -10
-22 -15 -30 -5 -8 -12 -22 -15 -30 -3 -8 -20 -44 -36 -80 -17 -36 -37 -81 -45
-100 -9 -19 -22 -48 -29 -63 -8 -16 -14 -36 -14 -46 0 -9 -4 -21 -9 -27 -10
-9 -36 -76 -51 -129 -4 -16 -18 -55 -30 -85 -12 -30 -25 -70 -30 -88 -5 -19
-13 -46 -18 -60 -13 -37 -41 -136 -82 -292 -6 -25 -15 -65 -19 -90 -5 -25 -13
-65 -19 -90 -25 -102 -42 -197 -42 -230 -1 -19 -7 -62 -15 -95 -8 -33 -15 -89
-15 -125 0 -36 -7 -121 -15 -190 -8 -69 -15 -194 -15 -278 0 -175 11 -215 78
-279 73 -69 54 -67 687 -70 631 -4 626 -4 697 61 68 63 87 123 74 229 -6 44
-15 62 -49 101 -71 80 -66 80 -537 86 l-414 5 3 100 c1 55 7 118 13 140 5 22
14 76 18 120 5 44 13 107 20 140 31 163 50 249 80 365 6 25 15 63 20 85 4 22
13 55 19 73 29 85 34 99 41 132 4 19 18 60 30 90 12 30 25 70 30 89 5 18 13
38 19 44 6 6 11 19 11 28 0 10 6 30 14 46 13 27 34 75 61 138 6 17 22 52 34
78 28 59 21 61 181 -33 8 -5 38 -21 65 -35 28 -14 77 -41 110 -60 33 -18 83
-46 110 -60 28 -15 77 -42 110 -61 104 -60 204 -104 236 -104 16 0 50 9 74 20
102 46 151 144 125 248 -21 81 -59 116 -215 197 -27 15 -72 40 -100 56 -27 16
-63 37 -80 45 -16 8 -43 23 -60 34 -16 10 -52 31 -80 45 -27 14 -63 35 -80 45
-16 11 -37 23 -45 26 -40 18 -120 70 -120 78 0 5 18 33 40 62 22 29 40 56 40
59 0 5 103 147 138 190 4 6 37 48 72 95 69 91 72 94 177 215 126 144 413 423
505 491 17 13 34 28 37 32 12 17 227 173 299 217 9 6 36 24 59 42 25 18 51 29
61 26 10 -2 31 -28 46 -56 15 -29 36 -65 46 -82 11 -16 24 -39 30 -50 6 -11
19 -33 30 -50 11 -16 23 -37 27 -45 4 -8 26 -46 48 -85 23 -38 44 -77 48 -85
4 -8 16 -28 27 -45 11 -16 24 -39 30 -50 6 -11 19 -33 30 -50 11 -16 23 -37
27 -45 14 -30 59 -73 95 -91 48 -24 144 -26 178 -2 112 74 148 178 96 274 -14
24 -37 67 -52 94 -49 90 -55 100 -74 130 -11 17 -23 37 -27 45 -4 8 -24 44
-46 79 -21 35 -43 74 -48 85 -5 12 -18 35 -29 51 -11 17 -24 39 -30 50 -10 20
-35 63 -72 123 -19 31 -19 32 -1 38 10 3 25 10 33 15 8 5 22 12 30 15 8 3 44
20 80 36 77 36 122 56 170 76 19 8 47 21 62 29 14 7 33 13 41 13 9 0 28 6 44
14 30 15 80 33 128 46 39 11 91 29 133 46 18 8 41 14 52 14 11 0 34 6 52 14
38 16 103 34 168 46 25 5 65 14 90 20 104 26 138 33 190 40 30 4 82 12 115 18
144 27 454 56 478 44 4 -2 7 -167 7 -366 0 -338 1 -367 19 -407 37 -83 105
-129 191 -129 63 0 90 11 143 59 61 55 62 61 67 471 l5 375 100 -3 c94 -2 238
-20 365 -43 30 -6 82 -14 115 -19 33 -4 73 -13 88 -19 16 -6 45 -11 65 -11 20
-1 48 -7 62 -15 14 -8 40 -14 58 -15 18 0 43 -5 55 -12 12 -6 40 -15 62 -19
22 -4 55 -12 73 -18 72 -25 98 -33 127 -41 46 -13 97 -31 127 -46 14 -8 35
-14 45 -14 11 0 28 -7 39 -15 10 -8 27 -15 37 -15 11 0 31 -6 45 -14 15 -8 52
-24 82 -36 73 -30 161 -69 180 -81 8 -5 22 -12 30 -15 107 -44 145 -73 119
-90 -6 -3 -14 -16 -20 -27 -5 -12 -13 -29 -19 -37 -18 -28 -156 -265 -163
-280 -4 -8 -16 -28 -27 -45 -11 -16 -23 -37 -27 -45 -4 -8 -32 -58 -63 -110
-71 -120 -86 -171 -69 -231 16 -56 53 -105 101 -135 53 -34 143 -34 197 0 33
21 101 94 101 109 0 5 109 195 130 227 6 8 15 24 20 35 6 11 19 34 30 50 11
17 24 39 30 50 6 11 19 34 30 50 11 17 24 39 30 50 37 72 81 141 93 149 10 6
53 -21 156 -98 77 -59 147 -109 155 -112 7 -3 20 2 29 11 14 14 14 19 1 50 -8
19 -14 50 -14 69 0 19 -7 61 -15 93 -10 38 -15 106 -15 205 0 172 -10 202 -82
261 -47 37 -137 97 -193 127 -11 6 -47 26 -80 45 -110 64 -446 225 -469 225
-8 0 -17 4 -21 10 -3 5 -20 14 -38 19 -18 5 -57 19 -87 31 -111 43 -136 52
-165 59 -16 5 -41 13 -55 18 -73 30 -404 119 -490 133 -25 4 -65 12 -90 18
-71 17 -159 33 -237 42 -39 5 -97 13 -130 19 -206 36 -887 52 -1068 26z"/>
<path d="M9116 20813 c-16 -2 -41 -12 -55 -21 -31 -19 -134 -97 -153 -115 -7
-7 -58 -48 -113 -92 -55 -44 -102 -83 -105 -87 -3 -4 -31 -27 -61 -50 -79 -61
-171 -134 -253 -201 -110 -90 -137 -112 -196 -158 -30 -23 -57 -45 -60 -49 -3
-3 -33 -27 -67 -53 -34 -26 -68 -53 -75 -60 -7 -7 -92 -75 -188 -152 -96 -77
-179 -145 -185 -151 -5 -6 -39 -33 -75 -60 -36 -26 -71 -54 -78 -61 -7 -7 -41
-34 -75 -60 -34 -26 -66 -52 -72 -59 -5 -6 -39 -33 -75 -60 -36 -26 -69 -53
-75 -60 -9 -9 -137 -109 -196 -153 -16 -11 -31 -11 -99 3 -44 9 -106 16 -138
16 -66 0 -212 -26 -260 -46 -18 -8 -40 -14 -48 -14 -9 0 -28 -6 -42 -14 -15
-8 -47 -24 -72 -36 -58 -27 -73 -37 -140 -86 -215 -160 -342 -394 -355 -654
-12 -229 27 -382 144 -565 71 -112 225 -258 312 -294 13 -6 31 -15 39 -20 14
-8 29 -15 123 -55 21 -9 48 -16 60 -16 12 0 44 -7 71 -15 32 -10 91 -15 168
-15 181 0 288 31 502 147 72 39 241 210 269 273 4 8 16 29 27 45 11 17 23 37
26 45 3 8 12 29 19 45 7 17 20 47 29 68 9 21 16 48 16 61 0 13 7 43 15 66 11
31 15 86 15 199 l0 156 51 60 c28 33 65 76 83 95 17 19 51 60 76 90 25 30 47
57 50 60 7 6 123 142 175 205 22 26 47 55 55 63 8 9 24 27 35 42 18 25 114
135 142 165 13 14 69 79 128 150 22 27 45 53 52 60 6 6 35 41 64 76 29 35 60
71 68 80 20 21 53 58 115 134 27 33 57 67 65 76 9 9 34 38 56 64 22 27 56 67
75 90 19 22 46 53 60 69 14 16 30 34 35 40 6 6 35 40 65 76 30 36 61 72 70 81
15 16 37 41 169 199 69 81 101 147 101 203 0 70 -54 160 -121 202 -39 25 -132
38 -193 28z m-2311 -2269 c28 -9 57 -20 65 -25 8 -5 24 -13 35 -18 11 -5 39
-29 61 -53 91 -95 129 -231 90 -320 -8 -18 -17 -40 -20 -48 -38 -101 -203
-210 -317 -210 -43 0 -137 28 -160 47 -8 7 -20 13 -26 13 -20 0 -98 87 -127
142 -26 48 -29 62 -29 148 0 84 3 100 26 140 15 25 37 57 49 71 30 33 124 99
142 99 7 0 29 7 47 15 45 19 103 19 164 -1z"/>
<path d="M10705 20363 c-22 -6 -49 -31 -80 -76 -17 -25 -106 -81 -210 -133
-16 -8 -43 -23 -60 -34 -16 -11 -39 -24 -50 -30 -11 -6 -42 -24 -70 -41 -27
-16 -63 -37 -80 -45 -16 -8 -43 -23 -60 -34 -16 -10 -55 -31 -85 -47 -127 -65
-182 -160 -156 -272 19 -85 111 -161 195 -161 29 0 143 50 206 90 17 10 53 31
80 45 28 14 73 39 100 56 28 16 64 37 80 45 17 8 44 23 60 34 17 11 37 23 45
27 8 4 48 26 88 50 40 24 80 43 90 43 12 0 27 -25 50 -83 39 -95 59 -141 78
-180 8 -16 14 -36 14 -46 0 -9 6 -25 14 -36 7 -11 16 -31 19 -45 3 -14 15 -50
27 -80 12 -30 26 -68 30 -85 5 -16 19 -61 30 -100 12 -38 25 -88 29 -110 4
-23 11 -47 16 -55 5 -8 12 -35 16 -60 4 -25 12 -63 18 -85 5 -22 17 -74 25
-115 8 -41 22 -109 31 -150 8 -41 15 -88 15 -105 0 -16 6 -64 14 -105 8 -41
16 -118 17 -170 l3 -95 -424 -5 c-460 -5 -459 -5 -526 -63 -55 -47 -74 -90
-74 -171 0 -90 22 -140 80 -186 78 -62 55 -60 687 -60 652 0 629 -2 714 77 77
72 84 110 70 339 -7 104 -16 251 -21 326 -5 76 -11 142 -15 147 -3 6 -10 50
-14 98 -9 89 -23 171 -43 253 -6 25 -14 68 -18 95 -4 28 -12 63 -18 78 -7 16
-12 40 -12 54 0 14 -6 46 -14 72 -8 25 -22 73 -31 106 -31 108 -47 159 -61
193 -8 18 -14 39 -14 47 0 14 -20 66 -46 118 -8 16 -14 36 -14 46 0 9 -7 26
-15 37 -8 10 -15 25 -15 31 -1 33 -187 410 -238 481 -37 51 -77 62 -272 72
-96 5 -177 9 -180 9 -3 -1 -14 -4 -25 -6z"/>
<path d="M3435 17065 c-86 -12 -123 -22 -190 -50 -16 -7 -37 -16 -45 -19 -36
-15 -111 -64 -160 -106 -119 -102 -235 -297 -260 -441 -5 -26 -13 -64 -19 -85
-17 -60 -14 -285 5 -368 22 -98 55 -205 65 -212 5 -3 9 -12 9 -21 0 -8 14 -35
30 -60 17 -24 30 -49 30 -54 0 -20 195 -204 240 -227 25 -12 52 -26 60 -31
103 -56 188 -74 355 -74 150 0 215 11 300 48 69 31 74 29 168 -54 133 -117
192 -119 282 -9 43 53 65 88 65 105 0 10 -40 58 -89 107 l-90 89 28 36 c44 55
108 189 130 271 35 125 38 470 6 547 -8 20 -15 44 -15 54 0 22 -45 127 -83
194 -41 73 -192 235 -219 235 -4 0 -27 14 -51 30 -25 17 -50 30 -55 30 -6 0
-23 6 -39 14 -53 26 -98 38 -193 52 -112 15 -145 15 -265 -1z m245 -354 c79
-28 107 -44 155 -90 44 -42 115 -141 115 -160 0 -6 6 -25 14 -43 8 -18 22 -76
31 -129 18 -99 18 -98 -15 -279 -13 -73 -36 -125 -57 -128 -11 -1 -50 27 -103
77 -88 82 -125 100 -171 82 -34 -12 -85 -65 -131 -136 l-39 -60 33 -30 c18
-16 57 -51 86 -76 59 -53 56 -63 -18 -73 -51 -8 -156 13 -210 40 -51 26 -153
132 -177 184 -53 114 -57 137 -57 299 0 135 3 164 22 219 25 72 36 91 76 147
107 146 291 210 446 156z"/>
<path d="M6950 17074 c-8 -2 -49 -8 -90 -13 -100 -12 -190 -47 -303 -118 -48
-30 -177 -155 -177 -172 0 -6 -4 -11 -9 -11 -11 0 -23 -21 -73 -125 -66 -136
-98 -284 -98 -450 0 -66 5 -136 11 -155 5 -19 14 -57 19 -85 9 -59 23 -97 64
-185 81 -171 203 -293 379 -377 37 -18 74 -33 83 -33 8 0 31 -7 52 -16 55 -23
326 -23 407 1 92 26 173 63 255 116 58 38 184 165 201 202 5 12 18 36 29 52
42 65 70 144 104 287 19 78 22 312 5 372 -6 21 -14 59 -19 85 -10 58 -24 97
-69 189 -58 119 -61 123 -141 203 -98 98 -185 154 -310 199 -66 23 -275 45
-320 34z m175 -362 c103 -37 138 -62 198 -142 89 -117 110 -192 109 -384 0
-156 -4 -175 -53 -281 -82 -176 -278 -276 -456 -234 -151 37 -248 133 -318
319 -27 71 -25 335 3 415 34 100 67 152 133 215 102 98 260 135 384 92z"/>
<path d="M4620 17016 c-9 -12 -10 -150 -7 -583 5 -666 9 -695 95 -845 32 -56
136 -161 176 -179 12 -5 28 -13 36 -18 27 -16 84 -38 145 -57 83 -26 361 -26
450 0 236 70 352 183 428 416 21 63 21 82 22 648 l0 582 -29 25 c-29 25 -32
25 -180 23 l-151 -3 -5 -570 c-6 -602 -4 -582 -53 -672 -9 -18 -35 -47 -57
-64 -155 -125 -386 -70 -473 111 -21 44 -21 56 -24 575 -3 364 -7 539 -15 560
-24 64 -26 65 -193 65 -121 0 -155 -3 -165 -14z"/>
<path d="M7917 17023 c-2 -5 -5 -58 -6 -120 -2 -96 1 -118 19 -152 11 -23 21
-42 23 -43 1 -1 92 -4 202 -7 l200 -6 5 -625 c5 -612 5 -626 26 -654 14 -19
33 -30 62 -36 62 -11 223 -1 250 16 l22 14 0 630 c0 558 2 630 16 644 13 13
45 16 194 16 198 0 204 2 216 65 3 18 4 76 2 128 -5 152 65 137 -634 137 -326
0 -595 -3 -597 -7z"/>
<path d="M9637 16990 c-10 -22 -23 -57 -31 -77 -45 -123 -76 -202 -92 -241 -8
-18 -14 -40 -14 -50 0 -9 -7 -26 -15 -36 -8 -11 -15 -29 -15 -41 0 -11 -6 -29
-14 -40 -7 -11 -16 -31 -19 -45 -3 -14 -15 -50 -26 -80 -44 -113 -53 -136 -58
-160 -3 -14 -12 -34 -19 -45 -8 -11 -14 -29 -14 -40 0 -12 -7 -30 -15 -41 -8
-10 -15 -30 -15 -44 0 -14 -7 -34 -15 -44 -8 -11 -15 -29 -15 -41 0 -12 -7
-30 -15 -41 -8 -10 -15 -28 -15 -39 0 -11 -6 -29 -14 -40 -7 -11 -16 -31 -19
-45 -3 -14 -15 -50 -26 -80 -43 -108 -52 -135 -61 -169 -5 -18 -13 -38 -19
-44 -18 -18 -12 -80 10 -107 21 -25 24 -25 169 -25 134 0 150 2 170 20 26 24
60 87 60 113 0 10 7 27 15 38 8 10 15 26 15 34 0 8 8 34 18 57 l17 43 298 0
c280 0 297 -1 297 -18 0 -10 7 -27 15 -38 8 -10 15 -31 15 -45 0 -14 7 -34 15
-45 8 -10 15 -29 15 -40 0 -39 39 -111 62 -118 44 -11 272 -6 298 7 22 11 25
20 28 69 2 37 -2 68 -13 87 -8 17 -15 41 -15 54 0 12 -5 28 -11 34 -6 6 -14
26 -19 44 -5 19 -18 59 -30 89 -12 30 -25 69 -30 85 -9 34 -28 87 -45 130 -17
40 -35 93 -45 130 -9 34 -28 87 -45 130 -17 40 -35 93 -45 130 -9 34 -28 87
-45 130 -18 44 -36 96 -44 130 -4 17 -12 39 -18 50 -12 23 -31 77 -43 120 -5
17 -18 55 -30 85 -12 30 -25 66 -28 80 -4 14 -14 35 -22 48 -15 22 -18 22
-221 22 l-206 0 -16 -40z m248 -467 c5 -26 18 -73 49 -183 7 -25 21 -72 30
-105 10 -33 22 -73 28 -90 6 -16 11 -46 12 -65 l1 -35 -145 0 -145 0 -3 29
c-2 16 3 45 11 65 8 20 22 63 32 96 9 33 23 75 31 93 8 18 14 43 14 55 1 12 7
33 15 47 8 14 14 36 15 50 0 27 25 70 40 70 5 0 12 -12 15 -27z"/>
<path d="M9221 14912 c-25 -9 -66 -38 -92 -64 -42 -42 -48 -54 -53 -100 -3
-29 -7 -343 -9 -698 -4 -567 -6 -645 -19 -645 -8 0 -73 56 -144 124 -176 169
-187 176 -288 175 -69 0 -87 -4 -122 -26 -94 -60 -136 -161 -113 -271 l13 -62
280 -278 c484 -481 530 -524 573 -546 55 -28 133 -28 189 0 48 23 811 769 850
831 20 31 24 51 24 114 0 101 -30 158 -115 212 -35 22 -51 26 -126 26 -69 1
-91 -3 -106 -16 -11 -10 -23 -18 -27 -18 -4 0 -51 -42 -104 -93 -141 -136
-223 -209 -228 -204 -3 3 -5 309 -4 681 0 449 -3 690 -10 716 -14 53 -83 120
-146 143 -61 22 -164 21 -223 -1z"/>
<path d="M3904 14871 c-23 -4 -59 -20 -79 -35 -34 -26 -738 -717 -823 -808
-72 -77 -91 -173 -52 -261 44 -100 127 -157 227 -157 86 0 108 15 320 217 85
82 161 149 169 151 12 3 14 -88 14 -611 0 -604 0 -615 21 -663 47 -108 156
-171 275 -161 105 9 123 17 183 76 44 43 60 67 69 103 9 33 12 222 12 647 0
555 1 601 17 601 9 0 48 -30 88 -67 285 -271 314 -293 401 -293 82 0 145 35
203 112 25 34 42 135 30 186 -21 93 1 69 -578 632 -167 162 -315 302 -330 311
-32 19 -112 29 -167 20z"/>
<path d="M6235 14603 c-18 -5 -195 -138 -365 -273 -41 -33 -111 -88 -155 -122
-44 -34 -82 -65 -85 -69 -3 -3 -27 -24 -55 -44 -102 -77 -126 -116 -128 -210
-1 -69 1 -77 29 -112 17 -21 98 -90 182 -153 83 -63 159 -122 169 -130 10 -9
36 -29 58 -45 22 -17 46 -36 53 -43 8 -6 35 -26 60 -44 26 -17 58 -41 72 -53
14 -13 57 -44 95 -70 64 -44 75 -48 130 -48 74 -1 131 32 171 95 52 82 39 163
-38 234 -51 47 -115 94 -128 94 -6 0 -10 8 -8 18 3 16 50 17 795 19 l793 2 54
26 c30 14 62 38 72 53 50 75 56 95 56 193 0 119 -20 164 -102 220 -82 56 -123
59 -928 59 -725 0 -751 1 -691 39 13 8 48 38 77 67 l52 51 0 68 c0 76 -18 115
-70 154 -32 23 -121 37 -165 24z"/>
</g>
</svg>
