<?xml version="1.0" standalone="no"?>
<!DOCTYPE svg PUBLIC "-//W3C//DTD SVG 20010904//EN"
 "http://www.w3.org/TR/2001/REC-SVG-20010904/DTD/svg10.dtd">
<svg version="1.0" xmlns="http://www.w3.org/2000/svg"
 width="900.000000pt" height="885.000000pt" viewBox="0 0 900.000000 885.000000"
 preserveAspectRatio="xMidYMid meet">
<metadata>
Created by potrace 1.10, written by Peter Selinger 2001-2011
</metadata>
<g transform="translate(0.000000,885.000000) scale(0.100000,-0.100000)"
fill="#000000" stroke="none">
<path d="M7335 8243 c-346 -26 -667 -266 -785 -587 -45 -121 -54 -177 -54
-331 0 -125 3 -164 23 -234 110 -408 469 -681 896 -681 247 0 471 94 646 269
181 183 262 381 261 646 0 323 -144 592 -412 770 -156 104 -384 162 -575 148z
m135 -323 c21 -11 48 -34 61 -51 22 -31 22 -33 16 -303 -8 -311 -13 -349 -53
-382 -40 -32 -108 -33 -149 0 -29 23 -30 27 -41 162 -7 77 -13 216 -13 309 -1
196 7 224 74 262 49 28 56 28 105 3z m25 -948 c17 -10 40 -38 53 -64 21 -42
23 -51 11 -85 -39 -122 -192 -140 -259 -31 -45 74 -8 158 85 195 34 14 67 9
110 -15z"/>
<path d="M4120 7925 c-637 -72 -1199 -292 -1695 -664 -210 -157 -438 -378
-594 -574 -100 -126 -252 -343 -277 -397 -4 -8 -19 -33 -33 -55 -45 -72 -148
-288 -194 -405 -103 -266 -159 -472 -203 -755 -18 -117 -39 -482 -30 -529 8
-44 50 -94 93 -112 25 -11 116 -14 426 -14 393 0 394 0 428 23 103 70 106 204
5 266 -32 20 -49 21 -314 21 -154 0 -283 4 -286 8 -11 17 30 310 68 490 35
162 118 420 184 570 41 93 46 95 120 48 20 -12 71 -41 112 -63 41 -23 104 -58
140 -78 179 -100 223 -106 289 -41 33 33 36 41 36 94 0 86 -12 98 -210 207
-203 112 -297 169 -302 181 -2 7 15 39 39 71 25 32 60 81 78 108 34 49 145
191 166 210 6 5 46 49 89 98 77 85 245 241 335 310 94 71 221 157 234 157 11
0 57 -74 201 -322 6 -9 21 -36 33 -60 34 -63 81 -107 125 -119 32 -8 45 -7 80
10 50 25 87 78 87 124 0 20 -17 62 -46 112 -25 44 -58 103 -74 130 -15 28 -56
97 -89 154 -34 57 -60 110 -57 117 3 7 40 30 83 50 329 154 728 260 1065 281
l97 6 3 -259 c3 -241 4 -261 23 -286 48 -64 139 -79 195 -32 58 49 60 60 60
329 0 189 3 245 13 246 165 12 620 -83 902 -189 146 -55 345 -145 345 -157 0
-2 -46 -82 -103 -177 -57 -95 -106 -180 -110 -188 -4 -8 -18 -33 -32 -55 -30
-50 -32 -106 -4 -151 48 -78 152 -91 211 -27 20 23 129 200 185 303 8 14 23
39 33 55 11 17 27 45 36 63 9 18 20 35 25 38 8 4 150 -97 188 -134 19 -18 46
-10 44 13 -1 11 -8 56 -17 100 -8 44 -15 119 -16 167 0 135 -7 146 -148 235
-285 179 -723 342 -1097 408 -281 49 -702 67 -945 40z"/>
<path d="M6080 6503 c-14 -3 -38 -15 -55 -26 -31 -22 -176 -137 -185 -147 -3
-3 -117 -95 -255 -205 -137 -110 -252 -202 -255 -205 -5 -6 -95 -79 -216 -175
-34 -27 -98 -78 -141 -112 -43 -35 -98 -79 -123 -99 -25 -19 -56 -45 -70 -58
-14 -12 -52 -42 -84 -66 l-59 -45 -146 0 c-133 0 -152 -3 -213 -26 -213 -83
-356 -241 -402 -446 -20 -91 -20 -165 0 -256 70 -312 363 -517 679 -477 313
40 538 305 534 627 l-1 101 83 99 c46 54 88 103 94 109 5 6 28 33 50 59 22 27
243 285 490 574 248 289 456 539 463 554 29 66 -3 163 -67 199 -30 18 -85 27
-121 21z m-1519 -1527 c44 -19 102 -72 123 -112 44 -89 28 -175 -48 -250 -117
-118 -276 -94 -368 55 -27 43 -30 141 -6 186 59 110 195 165 299 121z"/>
<path d="M7134 6200 c-12 -5 -31 -22 -43 -38 -11 -17 -47 -45 -79 -63 -31 -17
-72 -40 -90 -51 -155 -87 -300 -173 -316 -186 -88 -79 -44 -224 74 -239 43 -6
83 10 208 84 40 24 74 43 76 43 3 0 55 30 116 66 93 55 114 64 125 53 13 -14
83 -186 128 -314 75 -214 157 -612 157 -765 l0 -60 -288 0 -289 0 -40 -29
c-78 -56 -90 -156 -28 -229 44 -52 49 -53 490 -50 l410 3 33 23 c18 13 42 42
53 64 18 36 20 52 14 156 -20 386 -56 612 -145 912 -56 190 -204 520 -259 579
-25 26 -33 29 -131 35 -58 4 -116 9 -130 11 -14 2 -35 0 -46 -5z"/>
<path d="M2300 4004 c-141 -25 -230 -73 -320 -171 -104 -113 -145 -232 -145
-418 1 -134 18 -215 64 -304 59 -114 144 -193 265 -245 68 -30 77 -31 206 -31
118 0 141 3 184 23 27 12 52 22 57 22 5 0 32 -21 60 -46 65 -58 104 -75 138
-62 28 10 101 94 101 117 0 7 -25 39 -55 69 -30 31 -55 61 -55 67 0 7 9 24 20
38 56 71 100 228 100 357 0 334 -212 572 -520 585 -41 2 -86 2 -100 -1z m188
-258 c115 -59 172 -169 172 -331 0 -86 -20 -187 -40 -209 -6 -5 -37 17 -75 52
-81 77 -106 80 -158 23 -20 -22 -44 -52 -53 -67 l-18 -27 52 -48 c64 -59 67
-79 11 -79 -85 0 -130 20 -194 84 -68 69 -91 120 -101 226 -16 170 58 326 180
380 63 28 165 26 224 -4z"/>
<path d="M4595 4004 c-226 -48 -361 -163 -431 -369 -24 -71 -28 -95 -28 -215
-1 -149 11 -204 67 -315 40 -81 143 -182 227 -222 83 -40 136 -52 232 -53 163
0 276 45 383 154 82 83 126 165 149 279 61 293 -53 573 -279 686 -94 48 -237
72 -320 55z m182 -253 c23 -11 59 -37 81 -59 137 -137 129 -435 -14 -561 -137
-120 -326 -81 -416 86 -77 143 -52 369 54 475 55 55 109 78 188 78 42 0 79 -7
107 -19z"/>
<path d="M3098 3973 c-9 -2 -18 -10 -20 -16 -1 -7 -1 -199 2 -427 l5 -415 31
-65 c52 -109 151 -185 275 -211 76 -17 271 -6 329 18 79 32 107 51 150 100 98
111 102 135 107 571 3 200 2 374 -1 386 -3 12 -15 31 -26 44 -18 19 -31 22
-108 22 -55 0 -92 -4 -100 -12 -9 -9 -12 -104 -12 -368 0 -287 -3 -366 -15
-407 -26 -87 -93 -136 -186 -136 -75 0 -138 36 -176 101 l-28 47 -3 365 c-4
438 5 411 -126 409 -45 -1 -88 -3 -98 -6z"/>
<path d="M5282 3968 c-7 -7 -12 -42 -12 -89 0 -62 4 -81 20 -102 20 -26 25
-26 148 -29 l127 -3 3 -414 c2 -410 2 -415 24 -438 19 -20 31 -23 94 -23 40 0
84 4 98 10 l26 10 0 418 c0 312 3 421 12 430 8 8 50 12 125 12 145 0 153 6
153 113 0 64 -3 76 -23 95 -23 22 -27 22 -403 22 -282 0 -383 -3 -392 -12z"/>
<path d="M6432 3967 c-9 -11 -86 -213 -179 -472 -73 -205 -148 -409 -174 -476
-34 -89 -36 -110 -9 -134 16 -14 36 -17 112 -16 112 2 124 10 158 112 12 38
29 77 37 85 11 11 51 14 191 14 97 0 183 -4 189 -8 7 -4 27 -50 45 -102 l33
-95 113 -3 112 -3 10 26 c11 28 10 30 -76 278 -24 70 -65 187 -90 260 -133
383 -177 504 -190 525 -14 21 -21 22 -143 22 -93 0 -132 -4 -139 -13z m158
-336 c0 -10 18 -79 40 -154 22 -74 40 -140 40 -146 0 -7 -34 -11 -100 -11 -86
0 -100 2 -100 17 0 9 15 64 34 122 19 58 39 125 45 149 12 42 41 60 41 23z"/>
<path d="M6119 2547 c-18 -12 -44 -38 -57 -57 l-23 -34 1 -450 c1 -248 -3
-452 -7 -453 -5 -2 -47 33 -93 78 -121 116 -148 133 -210 127 -59 -6 -115 -45
-136 -94 -18 -43 -18 -107 0 -142 17 -33 518 -527 561 -554 38 -23 102 -23
137 0 14 9 143 131 286 270 294 285 314 312 293 391 -21 79 -88 131 -169 131
-48 0 -88 -28 -201 -139 -46 -44 -88 -81 -95 -81 -8 0 -10 120 -8 455 3 510 6
490 -70 545 -36 26 -50 30 -108 30 -53 0 -74 -5 -101 -23z"/>
<path d="M2554 2512 c-74 -55 -565 -544 -586 -585 -56 -110 44 -252 165 -233
48 8 84 34 210 156 49 47 93 85 99 85 6 0 9 -151 8 -410 -1 -464 -3 -449 79
-513 37 -28 50 -32 102 -32 74 0 129 26 164 77 l25 38 0 422 c0 264 4 423 10
423 5 0 26 -17 47 -37 111 -110 201 -188 232 -200 70 -29 160 8 195 80 21 46
20 115 -2 152 -10 17 -106 116 -213 222 -397 392 -386 383 -455 383 -29 0 -52
-8 -80 -28z"/>
<path d="M4110 2329 c-25 -17 -65 -48 -89 -68 -54 -45 -145 -117 -253 -201
-116 -90 -147 -130 -148 -190 0 -58 13 -70 360 -334 138 -105 187 -136 214
-136 54 0 136 83 136 138 0 43 -14 60 -115 145 -16 14 -27 28 -24 31 4 4 243
6 533 6 579 0 569 -1 614 60 73 99 40 241 -66 286 -27 11 -130 14 -543 14
-472 1 -509 2 -509 18 0 9 16 27 34 40 73 50 80 127 19 188 -46 46 -99 47
-163 3z"/>
</g>
</svg>
